<?xml version="1.0" encoding="UTF-8"?>
<svg width="40px" height="40px" viewBox="0 0 40 40" version="1.1" xmlns="http://www.w3.org/2000/svg" xmlns:xlink="http://www.w3.org/1999/xlink">
    <title>GestionCambio_40x40</title>
    <g id="GestionCambio_40x40" stroke="none" stroke-width="1" fill="none" fill-rule="evenodd">
        <g id="Group-9" transform="translate(5.000000, 2.000000)">
            <g id="Group-4" transform="translate(0.000000, 0.083000)">
                <path d="M11.1444009,5.64928571 C10.8864922,5.30271429 10.2626703,2.877 10.0836064,2.27157143 C9.84905388,1.47757143 9.50635525,-0.645142857 8.46863379,0.394285714 L1.22680731,10.6335714 C0.44076621,11.749 -0.625831963,12.7857143 0.633985388,13.234 C2.56320457,13.9204286 13.6263826,18.4671429 14.0380174,18.4264286 C15.1578393,18.3155714 14.2953598,16.5215714 14.0439626,15.6708571 C13.7083416,14.5352857 13.3814968,13.392 13.03441,12.2605714 C15.5387571,11.5495714 18.2024922,11.3244286 20.6001087,11.6264286 C22.2462228,11.8337143 24.82899,12.4275714 29.9244557,16.8374286 C28.8033598,13.2138571 24.1789808,2.95971429 11.1444009,5.64928571" id="Fill-1" fill="#3498DB"></path>
                <path d="M11.1444009,5.64928571 C10.8864922,5.30271429 10.2626703,2.877 10.0836064,2.27157143 C9.84905388,1.47757143 9.50635525,-0.645142857 8.46863379,0.394285714 L1.22680731,10.6335714 C0.44076621,11.749 -0.625831963,12.7857143 0.633985388,13.234 C2.56320457,13.9204286 13.6263826,18.4671429 14.0380174,18.4264286 C15.1578393,18.3155714 14.2953598,16.5215714 14.0439626,15.6708571 C13.7083416,14.5352857 13.3814968,13.392 13.03441,12.2605714 C15.5387571,11.5495714 18.2024922,11.3244286 20.6001087,11.6264286 C22.2462228,11.8337143 24.82899,12.4275714 29.9244557,16.8374286 C28.8033598,13.2138571 24.1789808,2.95971429 11.1444009,5.64928571" id="Stroke-3" stroke="#000000" stroke-width="0.75"></path>
            </g>
            <g id="Group-8" transform="translate(0.990868, 17.511571)">
                <path d="M18.8215297,12.8391143 C19.0794384,13.1856857 19.7034018,15.6114 19.8823242,16.2168286 C20.1168767,17.0108286 20.4595753,19.1335429 21.4972968,18.0942571 L28.7391233,7.85482857 C29.5253059,6.7394 30.5917626,5.70282857 29.3319452,5.2544 C27.402726,4.56811429 16.3396895,0.0214 15.9279132,0.0621142857 C14.8080913,0.172971429 15.6707123,1.96697143 15.921968,2.81754286 C16.257589,3.95311429 16.5844338,5.0964 16.9315205,6.22782857 C14.4271735,6.93882857 11.7634384,7.16397143 9.36582192,6.86197143 C7.71984932,6.65468571 5.13694064,6.06082857 0.0414748858,1.65097143 C1.16257078,5.27454286 5.78694977,15.5286857 18.8215297,12.8391143" id="Fill-5" fill="#22B573"></path>
                <path d="M18.8215297,12.8391143 C19.0794384,13.1856857 19.7034018,15.6114 19.8823242,16.2168286 C20.1168767,17.0108286 20.4595753,19.1335429 21.4972968,18.0942571 L28.7391233,7.85482857 C29.5253059,6.7394 30.5917626,5.70282857 29.3319452,5.2544 C27.402726,4.56811429 16.3396895,0.0214 15.9279132,0.0621142857 C14.8080913,0.172971429 15.6707123,1.96697143 15.921968,2.81754286 C16.257589,3.95311429 16.5844338,5.0964 16.9315205,6.22782857 C14.4271735,6.93882857 11.7634384,7.16397143 9.36582192,6.86197143 C7.71984932,6.65468571 5.13694064,6.06082857 0.0414748858,1.65097143 C1.16257078,5.27454286 5.78694977,15.5286857 18.8215297,12.8391143" id="Stroke-7" stroke="#000000" stroke-width="0.75"></path>
            </g>
        </g>
    </g>
</svg>